# xmcd
#
# Track frame offsets:
#  150
#  19722
#  32979
#  47272
#  61629
#  77109
#  93119
#  105252
#  121389
#  138154
#  155169
#  167451
#  183139
#  192971
#  208316
#  221206
#  240076
#  255784
#  266306
#  276253
#  290040
#  300902
#  319878
#  332653
#  342399
#
# Disc length: 4714 seconds
#
# Revision: 0
# Processed by: cddbd v1.4PL0 Copyright (c) Steve Scherf et al.
# Submitted via: AltoMP3_Maker 3.0
#
DISCID=51126819
DTITLE=Various Artist - Most Wanted Country Songs
DYEAR=1900
DGENRE=
TTITLE0=I Swear
TTITLE1=Rose Garden
TTITLE2=Take me home Country road
TTITLE3=Rhinestone Cowboy
TTITLE4=Heartache
TTITLE5=An American dream
TTITLE6=Stand by your man
TTITLE7=Blue Skies
TTITLE8=Jambalaya
TTITLE9=Stoney
TTITLE10=Brown eyes Blue
TTITLE11=I will love you all my life
TTITLE12=Snowbird
TTITLE13=Achy Breaky Heart
TTITLE14=Ruby don't take your love to town
TTITLE15=Don't be stupid
TTITLE16=King of the road
TTITLE17=Dream Lover
TTITLE18=Green Grass
TTITLE19=Young Love
TTITLE20=Travelin' Man
TTITLE21=Angel of the morning
TTITLE22=Raindrops
TTITLE23=I'm Falling
TTITLE24=I'll have to say I love you in a song
EXTD=
EXTT0=
EXTT1=
EXTT2=
EXTT3=
EXTT4=
EXTT5=
EXTT6=
EXTT7=
EXTT8=
EXTT9=
EXTT10=
EXTT11=
EXTT12=
EXTT13=
EXTT14=
EXTT15=
EXTT16=
EXTT17=
EXTT18=
EXTT19=
EXTT20=
EXTT21=
EXTT22=
EXTT23=
EXTT24=
PLAYORDER=
